<?xml version="1.0" encoding="UTF-8"?>
<svg id="Layer_2" data-name="Layer 2" xmlns="http://www.w3.org/2000/svg" viewBox="0 0 296.51 330.74">
  <g id="Layer_1-2" data-name="Layer 1">
    <g>
      <path d="M289.75,155.3c-1.73-10.36.71-9.28-5.26-18.19-1.05-1.57-2.1-3.02-3.14-4.41l-268.38-3.44c-.36.64-.66,1.28-.84,1.86-3.72,9.06-5.45,36.54-9.21,57.93l293.41,3.76c-.88-11.47-4.69-26.2-6.58-37.52Z"/>
      <path d="M264.13,113.1c-2.65-3.04-7.46-11.22-10.57-11.9-5.98-9.22-17.66-11.01-27.07-15.36-1.42-.66-5.17-3.85-6.65-4.49-2.12-.92-4.83-2.38-9.43-3.66,0,0,0,0,0,0l43.07-31.78-61.14,17.01-19.77,14.71,12.87-36.77,26.66-28.04-32.64,10.34-20.23,37.23-.04.2L131.2,0l-1.83,68.21h0s-22.52-15.18-22.52-15.18l-48.73-14.71,40.87,32.6.84.81c-.14-.11-.28-.22-.42-.34l-35.91,10.97c-13.74,13.11-32.08,26.98-44.37,41.77-2.36.32-4.8,2.76-6.15,5.12l268.38,3.44c-5.48-7.27-10.89-12.33-17.22-19.61Z"/>
      <path d="M67.01,301.72c1.99,1.59,3.92,3.37,5.99,4.99,4.36,3.43,11.31,10.94,15.96,12.97.27.12.68-.1,1,0,17.36,5.72,41.2,6.24,59.36,11.06,15.94-5.86,46.72-5.02,60.36-13.05,3.68-2.17,5.7-4.85,8.46-6.96,5.53-4.22,10.86-8.48,16.13-12.75l-174.87-2.24c2.55,1.99,5.1,3.98,7.62,5.99Z"/>
      <path d="M280.44,244.3c.31-.85.63-1.71.94-2.57l-268.3-3.44c4.54,10.08,9.25,20.07,12.15,28.93.35,1.39,2.64,1.34,2.87,1.58,9.48,10.03,20.42,18.47,31.29,26.93l174.87,2.24c12.09-9.82,23.81-19.69,36.71-29.23,3.27-8.05,6.46-16.28,9.47-24.44Z"/>
      <path d="M294.48,199.65c.2-.91,1.59.1,1.98-2.68.09-.6.03-1.37,0-2-.03-.7-.08-1.42-.13-2.15L2.92,189.06c-.8,4.56-1.69,8.85-2.72,12.62-.78,1.44.87,2.8.96,3.27,1.79,10.2,6.74,21.83,11.92,33.34l268.3,3.44c4.98-13.58,9.99-27.96,13.1-42.08Z"/>
    </g>
  </g>
</svg>