<?xml version="1.0" encoding="UTF-8"?>
<svg id="Layer_2" data-name="Layer 2" xmlns="http://www.w3.org/2000/svg" viewBox="0 0 296.51 330.74">
  <defs>
    <style>
      .cls-1 {
        fill: #2a5029;
      }

      .cls-2 {
        fill: #274c25;
      }

      .cls-3 {
        fill: #e64c30;
      }

      .cls-4 {
        fill: #cf2d19;
      }

      .cls-5 {
        fill: #4a733b;
      }

      .cls-6 {
        fill: #1b3d19;
      }

      .cls-7 {
        fill: #4b733b;
      }

      .cls-8 {
        fill: #b92616;
      }

      .cls-9 {
        fill: #9a1f12;
      }

      .cls-10 {
        fill: #721a11;
      }

      .cls-11 {
        fill: #a92113;
      }

      .cls-12 {
        fill: #527932;
      }

      .cls-13 {
        fill: #8a1e12;
      }

      .cls-14 {
        fill: #be2616;
      }

      .cls-15 {
        fill: #547c3d;
      }

      .cls-16 {
        fill: #8f1d12;
      }

      .cls-17 {
        fill: #c82a17;
      }

      .cls-18 {
        fill: #db3921;
      }

      .cls-19 {
        fill: #791b11;
      }

      .cls-20 {
        fill: #1b3e1d;
      }

      .cls-21 {
        fill: #ed5032;
      }

      .cls-22 {
        fill: #4c753d;
      }

      .cls-23 {
        fill: #f7653c;
      }
    </style>
  </defs>
  <g id="Layer_1-2" data-name="Layer 1">
    <g>
      <path class="cls-19" d="M296.46,196.97c-.4,2.78-1.78,1.76-1.98,2.68-3.3,15.01-8.75,30.33-14.04,44.65-3.01,8.17-6.2,16.39-9.47,24.44-18.52,13.69-34.6,28.08-52.84,41.98-2.76,2.1-4.78,4.79-8.46,6.96.97-1.75.98-3.88,1.8-5.68,10.68-23.6,28.79-54.3,35.11-78.12.58-2.19,2.16-3.65,2-5.99,7.97-1.89,12.11-8.5,18.46-12.97,9.3-6.54,20.28-11.1,29.43-17.96Z"/>
      <path class="cls-23" d="M65.01,118.16v1c.39.76,1.72.74,2,1,3.68,3.49,12.39,10.62,17.74,12.73,1.14.45,2.26.07,3.21.24-.74,1.28-.53,4.05-1,4.99-2.67,5.37-9.83,13.42-13.16,19.26-2.54,4.47-4.11,9.67-6.6,14.35-1.73,3.25-5.54,5.83-5.18,10.28h-2c-.32-.9-.29-1.51-.95-2.5-7.22-10.72-21.92-21.34-29.46-32.43l-17.47-15.95c.85-2.75,3.98-6.58,6.98-6.98-1.14,1.37-3.22,3.33-3.5,4.97,15.36-5.49,34.24-6.17,49.4-10.95Z"/>
      <path class="cls-13" d="M244.59,138.11c-1.16,2.97-.87,8.81,3.46,8.03.32-.06,3.36-6.15,4.52-1.53.5,2-1.99,3.46-2.02,4.98-.05,2.36,7.96,6.9,10.04,8.92,10.37,10.09,19.31,22.02,29.94,31.91,1.61,2.17.84,5.01.95,7.53,3.28.76,1.85-4.27,3-5.97l1.98,2.99c.03.63.09,1.4,0,2-9.15,6.86-20.13,11.42-29.43,17.96-6.35,4.47-10.48,11.08-18.46,12.97-.29.07-.66-.04-1,0v-1c-.44-18.14-1.9-36.59-4.01-54.35-1.36-11.46-4.13-22.89-4.97-34.43,1.99.06,3.99-.04,5.99,0Z"/>
      <path class="cls-21" d="M12.14,131.12l17.47,15.95c7.55,11.1,22.24,21.72,29.46,32.43.66.98.63,1.6.95,2.5-18.96,8.49-39.35,13.45-57.86,22.95h-1c-.08-.48-1.73-1.83-.96-3.27,5.83-21.46,7.42-59.56,11.93-70.55Z"/>
      <path class="cls-9" d="M155.8,303.72v1c-13.01.98-35.99,7.41-49.94,10.42-5.3,1.14-10.51,3.59-15.9,4.55-.31-.1-.73.12-1,0-1.32-1.94-1.87-4.67-2.92-6.54-1.99-3.55-5.13-6.93-7.06-10.42-3.33-6.01-6.77-12.79-9.98-18.96-.29-.55-.07-2.31-.77-3.68-2.51-4.88-5.43-9.57-8.21-14.28.33.03.67-.02,1,0,32.06,11.17,63.34,25.01,94.78,37.91Z"/>
      <path class="cls-8" d="M253.56,101.2c3.11.68,7.92,8.86,10.57,11.9,7.54,8.66,13.76,14.17,20.36,24.01.59,2.88-1.6,2.09-3.48,2.03-12.14-.38-24.22-.81-36.43-1.03-1.99-.04-3.99.06-5.99,0-5.31-.15-1.88-1.09-2.99-5.99-.08-.34-3.84-2.37-3.99-2.58-4.31-6.02-23.1-21.66-29.99-27.8-1.48-1.32-2-2.22-2.21-2.42l40.68-2.1c2.87,1.35,7.42.34,9.83,1.14,1.56.52,1.72,2.65,2.67,3.43.64.52.92-.6.97-.59Z"/>
      <path class="cls-10" d="M155.8,304.71c8.42-.63,16.09,3.45,23.93,5.5,9.94,2.6,19.9,5.31,29.94,7.47-13.64,8.03-44.42,7.19-60.36,13.05-18.16-4.81-42-5.34-59.36-11.06,5.39-.96,10.6-3.41,15.9-4.55,13.95-3,36.93-9.44,49.94-10.42Z"/>
      <path class="cls-9" d="M296.46,194.97l-1.98-2.99c-1.15,1.7.28,6.73-3,5.97-.11-2.52.67-5.36-.95-7.53-10.63-9.89-19.57-21.82-29.94-31.91-2.08-2.02-10.09-6.56-10.04-8.92.03-1.52,2.52-2.98,2.02-4.98-1.16-4.62-4.2,1.47-4.52,1.53-4.33.78-4.62-5.06-3.46-8.03,12.2.22,24.29.65,36.43,1.03,1.88.06,4.06.86,3.48-2.03,5.97,8.91,3.52,7.82,5.26,18.19,2.02,12.04,6.2,27.95,6.71,39.68Z"/>
      <path class="cls-17" d="M61.02,264.81v1c-.33-.02-.67.03-1,0-9.25-.73-21.2-.2-30.41,1.03-2.23.3-3.42-.98-1.51,1.97-.23-.24-2.52-.19-2.87-1.58-6.21-18.97-20.72-43.12-24.07-62.27h1l58.86,59.86Z"/>
      <path class="cls-11" d="M60.02,265.81c2.78,4.71,5.7,9.41,8.21,14.28.7,1.37.48,3.12.77,3.68-8,1.87.69,9.31.92,10.61.52,2.91-6.71,2.68-2.92,7.35-13.27-10.58-27.2-20.54-38.91-32.92-1.91-2.95-.72-1.67,1.51-1.97,9.22-1.23,21.16-1.76,30.41-1.03Z"/>
      <path class="cls-16" d="M210.42,77.68c4.6,1.28,7.31,2.74,9.43,3.66,1.48.64,5.23,3.83,6.65,4.49,9.41,4.35,21.09,6.14,27.07,15.36-.06-.01-.33,1.11-.97.59-.96-.78-1.11-2.92-2.67-3.43-2.41-.8-6.96.21-9.83-1.14l-40.68,2.1c-.13-.12-7.04-5.24-7.04-6.24,3-2.99,9.91-9.35,15.13-13.26,1.17-.87,2.61-1.9,2.92-2.13Z"/>
      <path class="cls-8" d="M117.37,88.36v1c-1.65-.12-6.25,2.11-7.98,2.99.49-2.46-1.09-2.19-2.77-2.67-13.37-3.85-29.7-2.75-43.13-7.3l35.91-10.97c5.82,4.85,14.79,9.25,17.96,16.96Z"/>
      <path class="cls-14" d="M69,283.76c3.2,6.17,6.65,12.94,9.98,18.96l-1.32.03c-1.15,3.68-5.43.26-4.66,3.96-2.06-1.62-3.99-3.4-5.99-4.99-3.8-4.67,3.44-4.44,2.92-7.35-.23-1.3-8.92-8.73-.92-10.61Z"/>
      <path class="cls-4" d="M78.98,302.72c1.93,3.48,5.07,6.87,7.06,10.42,1.05,1.87,1.59,4.61,2.92,6.54-4.65-2.03-11.6-9.54-15.96-12.97-.77-3.7,3.51-.29,4.66-3.96l1.32-.03Z"/>
      <path class="cls-11" d="M130.86,218.92c17.61,3.78,41.78,3.12,60.41,4.93,8.2.8,16.33,1.47,24.87,2.06,8.75.61,20.99,2.97,29.13,2.95,1.55,0,2.12-.94,2.3-.96.34-.04.7.07,1,0,.17,2.33-1.41,3.8-2,5.99l-88.79,69.83c-2.78-14.75-8.97-28.52-13.68-42.69-3.72-11.16-7.4-29.87-13.17-39.5-.71-1.19-1.93-.47-2.08-.62-.18-.18.12-1.44,0-2,.64.08,1.41-.13,2,0Z"/>
      <path class="cls-16" d="M246.58,233.88c-6.32,23.81-24.43,54.52-35.11,78.12-.82,1.81-.83,3.93-1.8,5.68-10.04-2.16-20-4.87-29.94-7.47-7.84-2.05-15.51-6.13-23.93-5.5v-1h2l88.79-69.83Z"/>
      <path class="cls-21" d="M178.74,158.06h1l1,2s-6.42,5.48-6.98,5.99c-16.07,14.62-29.24,35.91-42.9,52.87-.59-.13-1.36.08-2,0l-66.84-36.91c-.35-4.45,3.45-7.03,5.18-10.28,2.49-4.68,4.05-9.88,6.6-14.35,3.33-5.85,10.49-13.9,13.16-19.26l91.78,19.95Z"/>
      <path class="cls-4" d="M62.02,182l66.84,36.91c.12.56-.18,1.81,0,2l-66.84,43.9c-1.14-1.66-.97-3.54-1.04-5.44-.82-23.51,2.09-50.02.08-72.95-.17-1.97-.43-2.68-1.04-4.42h2Z"/>
      <path class="cls-18" d="M156.79,104.19c1.53,2.54,2.82,5.27,3.99,7.98.26.6.02,1.94.48,2.98,6.25,14.07,13.22,28.13,17.48,42.92l-91.78-19.95c.47-.94.26-3.71,1-4.99.31.05.67,0,1,0,.31,0,.19,1.05,2.62.28,7.35-2.32,14.62-8.58,21.32-12.25,1.52-.83,3.43-.82,4.87-1.61,4.95-2.7,10.69-5.88,15.08-9.37,5.89-1.49,13.36-6.22,18.96-8.98,4.69-.71,3.69.83,4.99,2.99Z"/>
      <path class="cls-21" d="M104.67,110.15l-.75,4.02c-.33.08-.8-.13-1,0-2.82,1.83-4.43,4.45-6.39,7.07-2.53,3.39-5.21,8.21-7.57,11.88-.32,0-.69.05-1,0-.95-.16-2.07.21-3.21-.24-5.35-2.11-16.05-10.24-19.73-13.73,11.93-2,27.39-6.57,39.66-9.01Z"/>
      <path class="cls-21" d="M65.01,119.15v-1c.67-.21,1.32-.74,2-1l-2,2Z"/>
      <path class="cls-3" d="M63.49,82.37c14.77,3.5,49.29,3.93,45.89,9.98-12.87,8.01-26.67,19.45-40.56,24.81-.68.26-3.15,1.78-3.82,2-15.16,4.78-34.03,4.46-49.4,9.95.28-1.63,2.36-3.6,3.5-4.97,12.29-14.79,30.63-28.66,44.37-41.77Z"/>
      <path class="cls-17" d="M180.74,160.06l66.84,66.84v1c-.19.02-.75.96-2.3.96-8.14.02-20.38-2.34-29.13-2.95-8.55-.59-16.67-1.26-24.87-2.06-18.63-1.81-42.8-1.15-60.41-4.93,13.66-16.97,26.82-38.25,42.9-52.87l6.98-5.99Z"/>
      <path class="cls-11" d="M211.66,129.13c2.24.64,3.86-1.96,5.47-2.02.93-.04.63,2.6,2.06,2.92.42.09,3.12-.86,5.41-.63.33.03,3.89-.27,4.22-.22,3.94,1.32,4.05.55,6.78,2.95,1.12,4.9-2.32,5.84,2.99,5.99.84,11.55,3.61,22.97,4.97,34.43,2.11,17.76,3.57,36.21,4.01,54.35l-66.84-66.84-1-2,51.87-17.97-18.3-8.16c-1.44-.22-1.5-2.69-1.65-2.8Z"/>
      <path class="cls-16" d="M153.8,99.2c7.87.95,29.2,10.92,37.89,14.48,10.48,4.29,22.1,8.91,32.32,13.58,1.45.66,4.14.31,4.81,1.91-2.13.03-9.21.94-9.63.85-1.43-.32-1.14-2.95-2.06-2.92-1.61.06-3.23,2.66-5.47,2.02-4.79-3.59-29.33-14.22-36.91-17.96-5.76-2.84-11.16-6.81-17.96-6.98-1.3-2.16-.3-3.71-4.99-2.99v-2c.6-.06,1.4-.07,2,0Z"/>
      <path class="cls-18" d="M62.02,264.81h-1L2.16,204.95c18.52-9.49,38.91-14.46,57.86-22.95.61,1.74.87,2.45,1.04,4.42,2.01,22.93-.9,49.44-.08,72.95.07,1.9-.1,3.77,1.04,5.44Z"/>
      <path class="cls-14" d="M128.86,220.91c.15.15,1.36-.56,2.08.62,5.78,9.62,9.46,28.34,13.17,39.5,4.71,14.16,10.9,27.94,13.68,42.69h-2c-31.44-12.9-62.71-26.74-94.78-37.91v-1h1l66.84-43.9Z"/>
      <path class="cls-8" d="M174.75,111.17c7.58,3.74,32.12,14.37,36.91,17.96.15.11.21,2.58,1.65,2.8l18.3,8.16-51.87,17.97h-1c-4.26-14.78-11.23-28.85-17.48-42.92-.46-1.03-.22-2.37-.48-2.98,4.8-2.62,9.95.93,13.97-1Z"/>
      <path class="cls-11" d="M111.9,122.14c-6.7,3.67-13.97,9.94-21.32,12.25-2.43.77-2.32-.27-2.62-.28,2.36-3.67,5.04-8.49,7.57-11.88,1.96-2.63,2.74-5.26,5.57-7.09l1.82-.98c.12-.02.51-.37,1,0,1.92,1.47,6.05,6.02,7.98,7.97Z"/>
      <path class="cls-9" d="M123.47,105.59c.17.01,15.56-3.96,20.26-4.91,1.38-.28,5.92-1.99,7.23-1.75.4.07.76.11.84.36.14.43.01,1.69.01,1.9-4.39,3.49-30.12,16.63-35.07,19.33-1.44.79-3.35.77-4.87,1.61-2.43-2.46-7.37-4.31-7.95-7.97.24-.05-.17-3.79.75-4.02l4.12-1c.6-.11,12.67-3.7,14.68-3.55Z"/>
      <path class="cls-11" d="M174.75,111.17c-4.02,1.93-9.17-1.62-13.97,1-1.17-2.71-2.46-5.44-3.99-7.98,6.79.17,12.2,4.14,17.96,6.98Z"/>
      <g>
        <polygon class="cls-15" points="129.36 68.49 150.96 98.94 159.24 60.68 131.2 0 129.36 68.49"/>
        <polygon class="cls-2" points="159.24 60.39 179.47 23.15 212.11 12.81 185.45 40.85 172.57 77.62 150.96 98.94 159.24 60.39"/>
        <polygon class="cls-5" points="172.57 77.62 192.34 62.91 253.48 45.91 210.05 77.96 192.36 93.07 151.46 98.97 172.57 77.62"/>
        <polygon class="cls-12" points="192.36 93.07 236.47 132.14 150.96 98.94 192.36 93.07"/>
        <polygon class="cls-20" points="129.36 68.2 150.96 98.94 116.69 87.94 128.08 86.62 129.36 68.2"/>
        <polygon class="cls-7" points="129.36 68.2 128.08 86.62 116.69 87.94 98.98 70.92 58.11 38.32 106.84 53.03 129.36 68.2"/>
        <polygon class="cls-22" points="116.69 87.94 63.19 120.19 150.96 98.94 116.69 87.94"/>
        <polygon class="cls-1" points="192.34 62.91 192.36 93.07 173.71 87.94 172.57 77.62 192.34 62.91"/>
        <polygon class="cls-6" points="173.71 87.94 192.36 93.07 150.96 98.94 172.57 77.62 173.71 87.94"/>
      </g>
    </g>
  </g>
</svg>